<svg width="236" height="64" viewBox="0 0 236 64" fill="none" xmlns="http://www.w3.org/2000/svg">
<g clip-path="url(#clip0_1150_547)">
<g clip-path="url(#clip1_1150_547)">
<path d="M0 8C0 3.58172 3.58172 0 8 0H56C60.4183 0 64 3.58172 64 8V56C64 60.4183 60.4183 64 56 64H8C3.58172 64 0 60.4183 0 56V8Z" fill="#EA1B15"/>
<path d="M44.0001 15.9999H47.4371C47.7488 15.9999 48.0001 16.2514 48.0001 16.5631V25.4267C48.0001 25.7385 47.7588 25.9899 47.4472 26H44.5631C44.2514 26 44.0001 25.7486 44.0001 25.4368V22.8437L21.7656 44H27.437C27.7487 44 28 44.2514 28 44.5632V47.4369C28 47.7486 27.7487 48 27.437 48H16.563C16.2513 48 16 47.7486 16 47.4369V44L41.2032 20H38.5631C38.2514 20 38.0001 19.7485 38.0001 19.4368V16.5732C38.0001 16.2614 38.2514 16.01 38.5631 16.01L44.0001 15.9999ZM24 20L33.4371 19.9899C33.7487 19.9899 34.0001 19.7385 34.0001 19.4267V16.5631C34.0001 16.2514 33.7487 15.9999 33.4471 15.9999H16.5831C16.2714 15.9999 16.0201 16.2514 16.0201 16.5631V25.4368C16.0201 25.7486 16.2714 26 16.5831 26H19.4471C19.7587 26 20 25.7486 20 25.4368V20H24ZM44.0001 44H32.563C32.2514 44 32 44.2514 32 44.5632V47.4369C32 47.7486 32.2514 48 32.563 48H47.4371C47.7488 48 48.0001 47.7486 48.0001 47.4369V38.5163C48.0001 38.2045 47.7488 37.9531 47.4371 37.9531H44.5631C44.2514 37.9531 44.0001 38.2045 44.0001 38.5163V44Z" fill="white"/>
</g>
<g clip-path="url(#clip2_1150_547)">
<path d="M80 46.0863V42.4338L93.5442 29.7276H84.0441V32.2324H80.2186V26.2482H98.6449V29.9006L85.21 42.534H95.038V39.9928H98.8635V46.0863H80Z" fill="#000514"/>
<path d="M110.486 46.542C108.5 46.542 106.761 46.0956 105.249 45.2121C103.746 44.3286 102.562 43.099 101.696 41.5414C100.84 39.9839 100.403 38.1804 100.403 36.1492C100.403 34.1181 100.822 32.3146 101.669 30.7571C102.516 29.1995 103.691 27.9699 105.203 27.0864C106.715 26.2028 108.446 25.7565 110.404 25.7565C112.362 25.7565 114.093 26.2028 115.605 27.0864C117.108 27.9699 118.292 29.1995 119.139 30.7571C119.986 32.3146 120.405 34.1181 120.405 36.1492C120.405 38.1804 119.986 39.9839 119.139 41.5414C118.292 43.099 117.126 44.3286 115.632 45.2121C114.139 46.0956 112.426 46.542 110.495 46.542H110.486ZM110.486 43.0899C111.679 43.0899 112.736 42.7893 113.656 42.1972C114.585 41.6052 115.304 40.7854 115.815 39.7562C116.334 38.7269 116.589 37.5246 116.589 36.1492C116.589 34.7739 116.334 33.5716 115.815 32.5423C115.295 31.5131 114.567 30.6933 113.61 30.1013C112.654 29.5092 111.588 29.2086 110.395 29.2086C109.202 29.2086 108.109 29.5092 107.18 30.1013C106.251 30.6933 105.531 31.5131 104.994 32.5423C104.465 33.5716 104.201 34.7739 104.201 36.1492C104.201 37.5246 104.465 38.7269 104.994 39.7562C105.522 40.7854 106.26 41.6052 107.216 42.1972C108.173 42.7893 109.256 43.0899 110.468 43.0899H110.486Z" fill="#000514"/>
<path d="M132.583 46.542C130.597 46.542 128.858 46.0956 127.346 45.2121C125.843 44.3286 124.659 43.099 123.793 41.5414C122.937 39.9839 122.5 38.1804 122.5 36.1492C122.5 34.1181 122.919 32.3146 123.766 30.7571C124.613 29.1995 125.788 27.9699 127.3 27.0864C128.812 26.2028 130.543 25.7565 132.501 25.7565C134.459 25.7565 136.19 26.2028 137.702 27.0864C139.205 27.9699 140.389 29.1995 141.236 30.7571C142.083 32.3146 142.502 34.1181 142.502 36.1492C142.502 38.1804 142.083 39.9839 141.236 41.5414C140.389 43.099 139.223 44.3286 137.729 45.2121C136.236 46.0956 134.523 46.542 132.592 46.542H132.583ZM132.583 43.0899C133.776 43.0899 134.833 42.7893 135.753 42.1972C136.682 41.6052 137.401 40.7854 137.911 39.7562C138.431 38.7269 138.686 37.5246 138.686 36.1492C138.686 34.7739 138.431 33.5716 137.911 32.5423C137.392 31.5131 136.664 30.6933 135.707 30.1013C134.751 29.5092 133.685 29.2086 132.492 29.2086C131.299 29.2086 130.206 29.5092 129.277 30.1013C128.348 30.6933 127.628 31.5131 127.091 32.5423C126.562 33.5716 126.298 34.7739 126.298 36.1492C126.298 37.5246 126.562 38.7269 127.091 39.7562C127.619 40.7854 128.357 41.6052 129.313 42.1972C130.269 42.7893 131.353 43.0899 132.565 43.0899H132.583Z" fill="#000514"/>
<path d="M174.053 27.951C172.687 26.4845 170.82 25.7468 168.443 25.7468C166.831 25.7468 165.446 26.1475 164.298 26.94C163.169 27.7142 162.304 28.8345 161.702 30.2828C161.365 29.3628 160.919 28.5795 160.336 27.951C158.97 26.4845 157.103 25.7468 154.725 25.7468C153.113 25.7468 151.729 26.1475 150.581 26.94C149.789 27.4865 149.142 28.206 148.605 29.0804L148.422 26.2295H144.888V46.0677H148.659V35.7569C148.659 33.6984 149.106 32.0953 150.007 30.9568C150.909 29.8182 152.166 29.2535 153.778 29.2535C154.735 29.2808 155.572 29.4812 156.301 29.8456C157.03 30.219 157.595 30.8748 158.004 31.813C158.414 32.7511 158.624 34.1174 158.624 35.9209V46.0768H162.395V35.766C162.395 33.7075 162.841 32.1044 163.743 30.9659C164.644 29.8273 165.901 29.2626 167.514 29.2626C168.47 29.2899 169.299 29.4903 170.009 29.8547C170.72 30.2281 171.294 30.8839 171.713 31.8221C172.132 32.7603 172.35 34.1265 172.35 35.93V46.0859H176.076V34.7368C176.103 31.6946 175.438 29.4448 174.072 27.9692L174.053 27.951Z" fill="#000514"/>
<path d="M180.502 23.0418C179.755 23.0418 179.109 22.7595 178.562 22.1948C178.016 21.63 177.733 20.9742 177.733 20.2273C177.733 19.4804 178.007 18.7973 178.562 18.2599C179.109 17.7225 179.755 17.4584 180.502 17.4584C181.249 17.4584 181.932 17.7225 182.47 18.2599C183.007 18.7973 183.271 19.444 183.271 20.2273C183.271 21.0107 183.007 21.63 182.47 22.1948C181.932 22.7595 181.286 23.0418 180.502 23.0418ZM178.599 46.0679L178.681 26.2298H182.406L182.37 46.0679H178.599Z" fill="#000514"/>
<path d="M200.869 27.951C199.502 26.4845 197.635 25.7468 195.258 25.7468C193.646 25.7468 192.261 26.1475 191.114 26.94C190.321 27.4865 189.674 28.206 189.137 29.0804L188.955 26.2295H185.421V46.0677H189.192V35.7569C189.192 33.6984 189.638 32.0953 190.54 30.9568C191.441 29.8182 192.698 29.2535 194.311 29.2535C195.267 29.2808 196.105 29.4812 196.834 29.8456C197.562 30.219 198.127 30.8748 198.537 31.813C198.947 32.7511 199.156 34.1174 199.156 35.9209V46.0768H202.927V34.7277C202.927 31.6855 202.244 29.4357 200.887 27.9601L200.869 27.951Z" fill="#000514"/>
<path d="M211.362 24.4445C211.362 23.2513 211.571 22.3769 211.999 21.8031C212.418 21.2384 213.074 20.9469 213.939 20.9469C214.231 20.9469 214.577 21.0107 214.987 21.1291C215.397 21.2475 215.88 21.4388 216.435 21.7029L217.82 18.8064C217.082 18.4603 216.353 18.187 215.634 17.9958C214.923 17.7954 214.258 17.6952 213.648 17.6952C211.608 17.6952 210.087 18.2326 209.085 19.2983C208.083 20.3731 207.573 21.9488 207.573 24.0347V26.2207H204.039V29.354H207.573V46.0588H211.344V29.354H216.818V26.2207H211.344V24.4354L211.362 24.4445Z" fill="#000514"/>
<path d="M226.081 46.542C224.095 46.542 222.356 46.0956 220.844 45.2121C219.341 44.3286 218.157 43.099 217.291 41.5414C216.435 39.9839 215.998 38.1804 215.998 36.1492C215.998 34.1181 216.417 32.3146 217.264 30.7571C218.111 29.1995 219.286 27.9699 220.798 27.0864C222.31 26.2028 224.041 25.7565 225.999 25.7565C227.957 25.7565 229.688 26.2028 231.2 27.0864C232.703 27.9699 233.887 29.1995 234.734 30.7571C235.581 32.3146 236 34.1181 236 36.1492C236 38.1804 235.581 39.9839 234.734 41.5414C233.887 43.099 232.721 44.3286 231.227 45.2121C229.733 46.0956 228.021 46.542 226.09 46.542H226.081ZM226.081 43.0899C227.274 43.0899 228.331 42.7893 229.251 42.1972C230.18 41.6052 230.899 40.7854 231.409 39.7562C231.929 38.7269 232.184 37.5246 232.184 36.1492C232.184 34.7739 231.929 33.5716 231.409 32.5423C230.89 31.5131 230.162 30.6933 229.205 30.1013C228.249 29.5092 227.183 29.2086 225.99 29.2086C224.797 29.2086 223.704 29.5092 222.775 30.1013C221.846 30.6933 221.126 31.5131 220.589 32.5423C220.06 33.5716 219.796 34.7739 219.796 36.1492C219.796 37.5246 220.06 38.7269 220.589 39.7562C221.117 40.7854 221.855 41.6052 222.811 42.1972C223.767 42.7893 224.851 43.0899 226.063 43.0899H226.081Z" fill="#000514"/>
</g>
</g>
<defs>
<clipPath id="clip0_1150_547">
<rect width="236" height="64" fill="white"/>
</clipPath>
<clipPath id="clip1_1150_547">
<rect width="64" height="64" fill="white"/>
</clipPath>
<clipPath id="clip2_1150_547">
<rect width="156" height="29.0832" fill="white" transform="translate(80 17.4584)"/>
</clipPath>
</defs>
</svg>
